<?xml version="1.0" ?><!DOCTYPE svg  PUBLIC '-//W3C//DTD SVG 1.1//EN'  'http://www.w3.org/Graphics/SVG/1.1/DTD/svg11.dtd'><svg enable-background="new 0 0 128 128" id="Layer_1" version="1.1" viewBox="0 0 128 128" xml:space="preserve" xmlns="http://www.w3.org/2000/svg" xmlns:xlink="http://www.w3.org/1999/xlink"><circle cx="64" cy="64" fill="#4B5F83" id="circle" r="64"/><g id="icon"><path d="M84.5,76.5l5.1,1.9l3.4-9.4L87.8,67c0.1-1,0.2-2,0.2-3c0-1.2-0.1-2.4-0.3-3.6l5.1-1.9l-3.4-9.4   L84.2,51c-1.2-1.9-2.7-3.6-4.3-5l2.7-4.7l-8.7-5l-2.8,4.8c-2.1-0.6-4.3-1-6.5-1.1l-1-5.4l-9.8,1.7l1,5.5c-2.1,0.9-4,2-5.7,3.4   l-4.2-3.5l-6.4,7.7l4.3,3.5c-1,1.9-1.8,4.2-2.2,6.2H35v10h5.6c0.5,2,1.3,4.4,2.3,6.3l-4.2,3.6l6.4,7.7l4.2-3.6   c1.8,1.4,3.7,2.5,5.8,3.3l-0.9,5.3l9.8,1.7l1-5.4c2.3-0.1,4.5-0.5,6.6-1.2l2.7,4.7l8.7-5l-2.8-4.8C81.9,80.1,83.3,78.4,84.5,76.5z    M48,64c0-8.8,7.2-16,16-16s16,7.2,16,16s-7.2,16-16,16S48,72.8,48,64z" fill="#E6E6E6" id="gear"/><circle cx="64" cy="64" fill="#22313F" id="circle_1_" r="8"/></g></svg>