<svg xmlns="http://www.w3.org/2000/svg" xmlns:xlink="http://www.w3.org/1999/xlink" viewBox="0 0 230 230">
  <defs>
    <style>
      .cls-1, .cls-3 {
        fill: #fff;
      }

      .cls-2 {
        fill: #f4f4f4;
      }

      .cls-3 {
        opacity: 0.5;
      }

      .cls-4 {
        fill: #37beb7;
      }

      .cls-5 {
        fill: #fbc316;
      }

      .cls-6 {
        fill: #000078;
      }

      .cls-7 {
        filter: url(#Rectangle_36);
      }
    </style>
    <filter id="Rectangle_36" x="0" y="0" width="230" height="230" filterUnits="userSpaceOnUse">
      <feOffset dy="4" input="SourceAlpha"/>
      <feGaussianBlur stdDeviation="5" result="blur"/>
      <feFlood flood-opacity="0.102"/>
      <feComposite operator="in" in2="blur"/>
      <feComposite in="SourceGraphic"/>
    </filter>
  </defs>
  <g id="Group_37" data-name="Group 37" transform="translate(-509 -2979)">
    <g class="cls-7" transform="matrix(1, 0, 0, 1, 509, 2979)">
      <rect id="Rectangle_36-2" data-name="Rectangle 36" class="cls-1" width="200" height="200" rx="25" transform="translate(15 11)"/>
    </g>
    <g id="Group_101" data-name="Group 101" transform="translate(574 3040)">
      <path id="Path_422" data-name="Path 422" class="cls-2" d="M4004.753,2065.875c-3.538,0-7.017-.058-10.555,0-1.044,0-1.566-.174-1.8-1.276a18.79,18.79,0,0,0-1.1-3.016c-.406-.986-1.392-2.146-1.16-2.958.232-.928,1.45-1.682,2.261-2.494l6.727-6.727c-5.045-4.987-10.033-9.975-15.136-15.02l-9.1,9.1c-2.494-1.044-4.93-2.03-7.481-3.074v-12.99h-21.167v4.117c-.87-1.16-1.508-2.32-2.262-3.537-.174-.29-.522-.638-.812-.638-2.03-.058-4-.058-6.147-.058v14.15a1.82,1.82,0,0,1-.232,1.16c-1.681,1.624-3.364,3.19-5.1,4.755-1.624-1.508-3.189-2.9-4.7-4.407a2.591,2.591,0,0,1-.7-1.566c-.058-3.769-.058-7.539-.058-11.366v-2.842c-1.972,0-3.77.058-5.567,0a1.45,1.45,0,0,0-1.508.928c-3.654,6.379-7.249,12.7-10.96,19.08a1.479,1.479,0,0,0,0,1.74c3.189,5.451,6.321,10.961,9.511,16.47a6.338,6.338,0,0,1,.87,3.248c-.058,8.351,0,16.644,0,24.995,0,6.553-.058,13.048.058,19.6a12.61,12.61,0,0,0,8.467,11.772,13.017,13.017,0,0,0,17.224-9.163,35.7,35.7,0,0,0,.522-3.6c1.1,0,1.45.522,1.45,1.624-.058,2.783,0,5.567,0,8.351v3.538h21.167v-12.236a1.315,1.315,0,0,1,.522-1.044c2.262-.986,4.581-1.856,7.075-2.842l8.989,8.989c4.987-4.93,9.975-9.859,15.02-14.9l-9.1-9.1c.87-2.2,1.8-4.349,2.552-6.553a1.218,1.218,0,0,1,1.392-.928c3.654.058,7.249,0,10.9,0h1.276v-21.341a10.23,10.23,0,0,1-1.334.058Zm-13.918,5.8H4000c.058,0,.116.058.29.116v1.276h-7.713c-2.088,0-2.436,0-2.842-1.392Zm-15.02-20.587c2.784-2.9,5.509-5.741,8.235-8.525l1.566,1.566c-2.668,2.726-5.335,5.51-8.061,8.351a35.185,35.185,0,0,0-14.15-5.857v-1.044A35.014,35.014,0,0,1,3975.814,2051.087Zm-18.964,10.033c-4.639.29-8.815,1.682-10.671,6.611a4.087,4.087,0,0,0-.348,1.392v20.065a.626.626,0,0,0,.058.29c-.174-.174-.406-.348-.58-.522a1.956,1.956,0,0,1-.522-1.16c-.058-6.669,0-13.338,0-20.065a4.09,4.09,0,0,1,.348-1.392c1.856-4.871,6.031-6.263,10.671-6.611a16.725,16.725,0,0,1,14.962,7.365A16.554,16.554,0,0,0,3956.851,2061.12Zm-4.755-23.255a41.307,41.307,0,0,0,0-4.639h9.569v1.392h-7.829c0,1.624.116,3.132,0,4.639a10.234,10.234,0,0,0,2.146,7.829c1.45,1.74,1.334,3.306,0,5.045a16.2,16.2,0,0,0-1.218,1.972,21,21,0,0,0-2.668.348,30.421,30.421,0,0,1,2.146-3.654c1.334-1.74,1.45-3.306,0-5.045A10.2,10.2,0,0,1,3952.1,2037.865Zm-9.917,7.655a2.741,2.741,0,0,0,.638-1.45,54.018,54.018,0,0,1,.29-6.089c.29.522.58.986.87,1.508.116.232.232.406.348.638-.058,1.45-.058,2.9-.116,4.292a2.224,2.224,0,0,1-.638,1.45c-2.088,2.03-4.292,4.059-6.437,6.031-1.334,1.276-2.726,2.494-4.117,3.77-.29-.29-.58-.522-.87-.812,1.218-1.1,2.378-2.2,3.6-3.305C3937.887,2049.579,3940.091,2047.607,3942.179,2045.52Zm-19.6,16.876c-2.552-4.523-5.161-8.989-7.713-13.512a1.773,1.773,0,0,1-.058-1.334c1.8-3.248,3.653-6.437,5.509-9.627a.348.348,0,0,1,.232.058v2.32c-1.45,2.552-2.9,5.045-4.35,7.6a1.775,1.775,0,0,0,.058,1.334c2.552,4.523,5.161,8.989,7.713,13.512.116.174.232.29.29.406h-.348A1.251,1.251,0,0,1,3922.577,2062.4Zm1.8,50.57c-.058-6.843,0-13.686,0-20.529v-23.429h14.556c0,.406.058.7.058,1.044h-13.57v23.429c0,6.843-.058,13.686,0,20.529a7.176,7.176,0,0,0,1.624,4.524,7.161,7.161,0,0,1-2.668-5.568Zm21.167-6.727a1.472,1.472,0,0,1-.754-.812c-.058-3.132-.058-6.263-.058-9.569a22.888,22.888,0,0,0,18.384,2.552,21.765,21.765,0,0,0,11.076-7.191,22.589,22.589,0,0,0,2.2-26.1,23.77,23.77,0,0,0-4.524-5.567,21.975,21.975,0,0,1,6.263,6.959,22.59,22.59,0,0,1-2.2,26.1,21.3,21.3,0,0,1-11.077,7.191,22.855,22.855,0,0,1-18.383-2.552c0,3.19,0,6.263.058,9.279a6.333,6.333,0,0,1-.986-.29Zm6.553,2.9,1.74.522V2120.1h-1.74Zm25.343-5.394c.058-.058.174-.116.232-.174,2.262,2.32,4.523,4.639,6.669,6.9l-.174.174Z" transform="translate(-3906.927 -2025.854)"/>
      <path id="Path_423" data-name="Path 423" class="cls-3" d="M4000.6,2100.845c0-10.439-8.235-18.209-17.978-17.572-4.639.29-8.815,1.682-10.67,6.611a4.093,4.093,0,0,0-.348,1.392v20.065a1.788,1.788,0,0,0,.522,1.16c5.394,4.871,11.657,6.031,18.268,3.189S4000.249,2107.4,4000.6,2100.845Z" transform="translate(-3933.68 -2049.399)"/>
      <path id="Path_424" data-name="Path 424" class="cls-4" d="M3936.281,2098.8v23.429c0,6.843-.058,13.686,0,20.53a7.255,7.255,0,0,0,7.481,7.191c4.06-.058,7.133-3.364,7.133-7.829v-42.276c0-.348-.058-.638-.058-1.044Z" transform="translate(-3918.833 -2055.937)"/>
      <path id="Path_425" data-name="Path 425" class="cls-5" d="M3925.967,2043.916a.348.348,0,0,1-.232-.058c-1.856,3.19-3.711,6.379-5.509,9.627a1.772,1.772,0,0,0,.058,1.333c2.551,4.524,5.161,8.989,7.713,13.512a1.33,1.33,0,0,0,1.334.754h15.484a1.33,1.33,0,0,0,1.392-.87c2.552-4.465,5.1-8.931,7.713-13.4a1.306,1.306,0,0,0,0-1.566c-1.566-2.61-3.074-5.277-4.582-7.945-.29-.522-.58-.986-.87-1.508-.232,2.088-.174,4.117-.29,6.089a2.224,2.224,0,0,1-.638,1.45c-2.088,2.03-4.292,4.059-6.437,6.031-1.334,1.276-2.726,2.494-4.118,3.77-3.6-3.364-7.133-6.669-10.613-9.975a2.089,2.089,0,0,1-.521-1.276C3925.967,2048.033,3925.967,2046,3925.967,2043.916Z" transform="translate(-3912.056 -2032.833)"/>
      <path id="Path_426" data-name="Path 426" class="cls-4" d="M4010.379,2062.015c2.842-2.842,5.683-5.625,8.409-8.351-2.2-2.2-4.407-4.407-6.785-6.727-2.726,2.784-5.452,5.625-8.235,8.525a35.192,35.192,0,0,0-14.15-5.857v-12h-9.569c0,1.624.116,3.132,0,4.639a10.235,10.235,0,0,0,2.146,7.829c1.45,1.74,1.334,3.306,0,5.045-.812,1.1-1.392,2.378-2.146,3.654,10.265-1.8,19.486,2.378,24.415,10.787a22.589,22.589,0,0,1-2.2,26.1,21.3,21.3,0,0,1-11.077,7.191,22.858,22.858,0,0,1-18.384-2.552c0,3.305,0,6.437.058,9.569,0,.29.406.7.754.812,2.146.7,4.292,1.334,6.553,2.03v11.772h9.627v-12a35.056,35.056,0,0,0,14.208-5.915c2.784,2.9,5.567,5.741,8.235,8.467,2.32-2.262,4.523-4.465,6.843-6.727-2.784-2.784-5.625-5.567-8.293-8.235,1.276-2.378,2.552-4.581,3.538-6.843.986-2.32,1.566-4.813,2.378-7.423h11.773v-9.685c-.174-.058-.232-.116-.29-.116h-9.163c-2.494,0-2.494,0-3.073-2.378A40.221,40.221,0,0,0,4010.379,2062.015Z" transform="translate(-3934.184 -2030.229)"/>
      <path id="Path_427" data-name="Path 427" class="cls-6" d="M3988.265,2092.341l9.1,9.1c-5.045,4.988-10.033,9.917-15.02,14.9l-8.989-8.989c-2.494.986-4.813,1.914-7.075,2.841a1.317,1.317,0,0,0-.522,1.044c-.058,4.06,0,8.119,0,12.237H3944.6v-3.538c0-2.784-.058-5.567,0-8.351.058-1.1-.348-1.624-1.45-1.624-.174,1.218-.29,2.436-.522,3.6a12.942,12.942,0,0,1-17.224,9.163,12.531,12.531,0,0,1-8.467-11.772c-.116-6.553-.058-13.048-.058-19.6V2066.36a6.342,6.342,0,0,0-.87-3.248c-3.189-5.451-6.321-10.96-9.511-16.47a1.48,1.48,0,0,1,0-1.74c3.654-6.321,7.307-12.7,10.961-19.08a1.475,1.475,0,0,1,1.508-.928c1.8.058,3.654,0,5.568,0v2.842c0,3.77,0,7.539.058,11.367a2.417,2.417,0,0,0,.7,1.566c1.508,1.508,3.073,2.9,4.7,4.408,1.74-1.624,3.479-3.132,5.1-4.755a1.82,1.82,0,0,0,.232-1.16v-14.15c2.146,0,4.175,0,6.147.058.29,0,.638.348.812.638a40.049,40.049,0,0,0,2.261,3.538v-4.117h21.167v12.99c2.552,1.044,4.988,2.03,7.481,3.074l9.1-9.1c5.1,5.045,10.091,9.975,15.136,15.02l-6.727,6.727c-.812.812-2.03,1.508-2.262,2.494-.174.87.754,1.972,1.16,2.958a18.741,18.741,0,0,1,1.1,3.015c.232,1.1.812,1.334,1.8,1.276,3.538-.058,7.017,0,10.554,0h1.334v21.341h-12.179a1.218,1.218,0,0,0-1.392.928C3990.063,2087.991,3989.135,2090.137,3988.265,2092.341Zm-7.6-37.057c2.842-2.842,5.684-5.625,8.409-8.351-2.2-2.2-4.407-4.407-6.785-6.727-2.726,2.784-5.451,5.625-8.235,8.525a35.187,35.187,0,0,0-14.15-5.857v-12h-9.569c0,1.624.116,3.132,0,4.639a10.236,10.236,0,0,0,2.146,7.829c1.45,1.74,1.334,3.306,0,5.045-.812,1.1-1.392,2.378-2.146,3.654,10.265-1.8,19.486,2.378,24.415,10.787a22.589,22.589,0,0,1-2.2,26.1,21.3,21.3,0,0,1-11.077,7.191,22.857,22.857,0,0,1-18.384-2.552c0,3.306,0,6.437.058,9.569,0,.29.406.7.754.812,2.146.7,4.292,1.334,6.553,2.03v11.772h9.627v-12a35.05,35.05,0,0,0,14.208-5.915c2.784,2.9,5.567,5.741,8.235,8.467,2.32-2.262,4.524-4.465,6.843-6.727-2.784-2.784-5.625-5.567-8.293-8.235,1.276-2.378,2.552-4.581,3.538-6.843.986-2.32,1.566-4.814,2.378-7.423h11.772v-9.685c-.174-.058-.232-.116-.29-.116h-9.163c-2.494,0-2.494,0-3.074-2.378A40.231,40.231,0,0,0,3980.667,2055.283Zm-8.583,19.659c0-10.438-8.235-18.209-17.978-17.572-4.639.29-8.815,1.682-10.67,6.611a4.088,4.088,0,0,0-.348,1.392v20.065a1.786,1.786,0,0,0,.522,1.16c5.393,4.871,11.656,6.031,18.268,3.19s9.859-8.293,10.207-14.846Zm-49.468-8.235v23.429c0,6.843-.058,13.686,0,20.529a7.255,7.255,0,0,0,7.481,7.191c4.059-.058,7.133-3.364,7.133-7.829v-42.277c0-.348-.058-.638-.058-1.044Zm-3.886-31.084a.348.348,0,0,1-.232-.058c-1.856,3.19-3.711,6.379-5.509,9.627a1.775,1.775,0,0,0,.058,1.334c2.552,4.523,5.161,8.989,7.713,13.512a1.331,1.331,0,0,0,1.334.754h15.484a1.329,1.329,0,0,0,1.391-.87c2.552-4.465,5.1-8.931,7.713-13.4a1.305,1.305,0,0,0,0-1.566c-1.566-2.61-3.073-5.277-4.581-7.945-.29-.522-.58-.986-.87-1.508-.232,2.088-.174,4.117-.29,6.089a2.223,2.223,0,0,1-.638,1.45c-2.088,2.03-4.292,4.059-6.437,6.031-1.334,1.276-2.726,2.494-4.118,3.77-3.6-3.364-7.133-6.669-10.613-9.975a2.088,2.088,0,0,1-.522-1.276C3918.731,2039.741,3918.731,2037.712,3918.731,2035.624Z" transform="translate(-3906.212 -2024.889)"/>
      <path id="Path_428" data-name="Path 428" class="cls-1" d="M3947.6,2143.826h-4V2109.9h4Z" transform="translate(-3921.918 -2060.6)"/>
    </g>
  </g>
</svg>
